P2
# CREATOR: Image Processing using C-Ansi - ByDu
10  10
3
  0   0   0   0   0   0   0   0   0   0   0   0   0   0   0   0   0 
  0   0   0   0   0   0   0   0   0   0   0   0   0   0   0   0   1 
  1   1   1   0   0   0   0   0   0   1   2   2   1   0   0   0   0 
  0   0   1   2   2   1   0   0   0   0   0   0   1   1   1   1   0 
  0   0   0   0   0   0   0   0   0   0   0   0   0   0   0   0   0 
  0   0   0   0   0   0   0   0   0   0   0   0   0   0   0 